M48
METRIC,LZ,000.000
;FILE_FORMAT=3:3
;TYPE=PLATED
;Layer: PTH_Through
;EasyEDA v6.5.23, 2023-05-28 17:35:23
;5b9d0392a9f34ebfbb4243e03fcb58ae,7b9118f9ee4640bfb0881aea6626bb62,10
;Gerber Generator version 0.2
;Holesize 1 = 0.901 mm
T01C0.901
;Holesize 2 = 0.915 mm
T02C0.915
;Holesize 3 = 1.000 mm
T03C1.000
;Holesize 4 = 1.050 mm
T04C1.050
%
G05
G90
T01
X043180Y058995
X043180Y056495
X043180Y053995
X043180Y051495
T02
X009525Y072136
X009525Y070866
X009525Y069596
X009525Y068326
X009525Y067056
X009525Y065786
X009525Y064516
X009525Y063246
X009525Y061976
X009525Y073406
T03
X036830Y052578
X036830Y055118
X036830Y057658
X036830Y060198
X037338Y070485
X037338Y073025
X037338Y075565
X037338Y078105
X043180Y067437
X043180Y069977
X043180Y072517
X043180Y075057
X043180Y077597
X043180Y080137
T04
X043053Y042311
X043053Y044811
M30
