G04 Layer: BottomSilkscreenLayer*
G04 EasyEDA v6.5.23, 2023-05-28 17:35:23*
G04 5b9d0392a9f34ebfbb4243e03fcb58ae,7b9118f9ee4640bfb0881aea6626bb62,10*
G04 Gerber Generator version 0.2*
G04 Scale: 100 percent, Rotated: No, Reflected: No *
G04 Dimensions in millimeters *
G04 leading zeros omitted , absolute positions ,4 integer and 5 decimal *
%FSLAX45Y45*%
%MOMM*%

%ADD10C,0.2000*%

%LPD*%
D10*
X3962400Y8292409D02*
G01*
X3962400Y8196953D01*
X3962400Y8292409D02*
G01*
X3926037Y8196953D01*
X3889672Y8292409D02*
G01*
X3926037Y8196953D01*
X3889672Y8292409D02*
G01*
X3889672Y8196953D01*
X3805128Y8260590D02*
G01*
X3805128Y8196953D01*
X3805128Y8246953D02*
G01*
X3814218Y8256046D01*
X3823309Y8260590D01*
X3836946Y8260590D01*
X3846037Y8256046D01*
X3855128Y8246953D01*
X3859672Y8233318D01*
X3859672Y8224227D01*
X3855128Y8210590D01*
X3846037Y8201499D01*
X3836946Y8196953D01*
X3823309Y8196953D01*
X3814218Y8201499D01*
X3805128Y8210590D01*
X3770581Y8260590D02*
G01*
X3743309Y8196953D01*
X3716037Y8260590D02*
G01*
X3743309Y8196953D01*
X3752400Y8178772D01*
X3761491Y8169681D01*
X3770581Y8165137D01*
X3775128Y8165137D01*
X3663309Y8260590D02*
G01*
X3672400Y8256046D01*
X3681491Y8246953D01*
X3686037Y8233318D01*
X3686037Y8224227D01*
X3681491Y8210590D01*
X3672400Y8201499D01*
X3663309Y8196953D01*
X3649672Y8196953D01*
X3640581Y8201499D01*
X3631491Y8210590D01*
X3626947Y8224227D01*
X3626947Y8233318D01*
X3631491Y8246953D01*
X3640581Y8256046D01*
X3649672Y8260590D01*
X3663309Y8260590D01*
X3522400Y8269681D02*
G01*
X3522400Y8274227D01*
X3517854Y8283318D01*
X3513310Y8287862D01*
X3504219Y8292409D01*
X3486038Y8292409D01*
X3476947Y8287862D01*
X3472400Y8283318D01*
X3467854Y8274227D01*
X3467854Y8265137D01*
X3472400Y8256046D01*
X3481491Y8242409D01*
X3526947Y8196953D01*
X3463310Y8196953D01*
X3406038Y8292409D02*
G01*
X3419673Y8287862D01*
X3428763Y8274227D01*
X3433310Y8251499D01*
X3433310Y8237862D01*
X3428763Y8215137D01*
X3419673Y8201499D01*
X3406038Y8196953D01*
X3396947Y8196953D01*
X3383310Y8201499D01*
X3374219Y8215137D01*
X3369673Y8237862D01*
X3369673Y8251499D01*
X3374219Y8274227D01*
X3383310Y8287862D01*
X3396947Y8292409D01*
X3406038Y8292409D01*
X3335129Y8269681D02*
G01*
X3335129Y8274227D01*
X3330582Y8283318D01*
X3326038Y8287862D01*
X3316947Y8292409D01*
X3298764Y8292409D01*
X3289673Y8287862D01*
X3285129Y8283318D01*
X3280582Y8274227D01*
X3280582Y8265137D01*
X3285129Y8256046D01*
X3294219Y8242409D01*
X3339673Y8196953D01*
X3276038Y8196953D01*
X3236948Y8292409D02*
G01*
X3186948Y8292409D01*
X3214220Y8256046D01*
X3200582Y8256046D01*
X3191492Y8251499D01*
X3186948Y8246953D01*
X3182401Y8233318D01*
X3182401Y8224227D01*
X3186948Y8210590D01*
X3196038Y8201499D01*
X3209673Y8196953D01*
X3223310Y8196953D01*
X3236948Y8201499D01*
X3241492Y8206046D01*
X3246038Y8215137D01*
X3937800Y8462853D02*
G01*
X3942346Y8471946D01*
X3955981Y8476490D01*
X3969618Y8476490D01*
X3983253Y8471946D01*
X3987800Y8462853D01*
X3983253Y8453762D01*
X3974162Y8449218D01*
X3951437Y8444671D01*
X3942346Y8440127D01*
X3937800Y8431037D01*
X3937800Y8426490D01*
X3942346Y8417399D01*
X3955981Y8412853D01*
X3969618Y8412853D01*
X3983253Y8417399D01*
X3987800Y8426490D01*
X3907800Y8449218D02*
G01*
X3853253Y8449218D01*
X3853253Y8458309D01*
X3857800Y8467399D01*
X3862346Y8471946D01*
X3871437Y8476490D01*
X3885072Y8476490D01*
X3894162Y8471946D01*
X3903253Y8462853D01*
X3907800Y8449218D01*
X3907800Y8440127D01*
X3903253Y8426490D01*
X3894162Y8417399D01*
X3885072Y8412853D01*
X3871437Y8412853D01*
X3862346Y8417399D01*
X3853253Y8426490D01*
X3823253Y8476490D02*
G01*
X3823253Y8412853D01*
X3823253Y8458309D02*
G01*
X3809618Y8471946D01*
X3800528Y8476490D01*
X3786891Y8476490D01*
X3777800Y8471946D01*
X3773253Y8458309D01*
X3773253Y8412853D01*
X3693253Y8462853D02*
G01*
X3697800Y8471946D01*
X3711437Y8476490D01*
X3725072Y8476490D01*
X3738709Y8471946D01*
X3743253Y8462853D01*
X3738709Y8453762D01*
X3729619Y8449218D01*
X3706891Y8444671D01*
X3697800Y8440127D01*
X3693253Y8431037D01*
X3693253Y8426490D01*
X3697800Y8417399D01*
X3711437Y8412853D01*
X3725072Y8412853D01*
X3738709Y8417399D01*
X3743253Y8426490D01*
X3640528Y8476490D02*
G01*
X3649619Y8471946D01*
X3658709Y8462853D01*
X3663254Y8449218D01*
X3663254Y8440127D01*
X3658709Y8426490D01*
X3649619Y8417399D01*
X3640528Y8412853D01*
X3626891Y8412853D01*
X3617800Y8417399D01*
X3608710Y8426490D01*
X3604163Y8440127D01*
X3604163Y8449218D01*
X3608710Y8462853D01*
X3617800Y8471946D01*
X3626891Y8476490D01*
X3640528Y8476490D01*
X3574163Y8476490D02*
G01*
X3574163Y8412853D01*
X3574163Y8449218D02*
G01*
X3569619Y8462853D01*
X3560528Y8471946D01*
X3551438Y8476490D01*
X3537800Y8476490D01*
X3507800Y8449218D02*
G01*
X3453254Y8449218D01*
X3453254Y8458309D01*
X3457801Y8467399D01*
X3462347Y8471946D01*
X3471438Y8476490D01*
X3485073Y8476490D01*
X3494163Y8471946D01*
X3503254Y8462853D01*
X3507800Y8449218D01*
X3507800Y8440127D01*
X3503254Y8426490D01*
X3494163Y8417399D01*
X3485073Y8412853D01*
X3471438Y8412853D01*
X3462347Y8417399D01*
X3453254Y8426490D01*
X3373254Y8462853D02*
G01*
X3377801Y8471946D01*
X3391438Y8476490D01*
X3405073Y8476490D01*
X3418710Y8471946D01*
X3423254Y8462853D01*
X3418710Y8453762D01*
X3409619Y8449218D01*
X3386891Y8444671D01*
X3377801Y8440127D01*
X3373254Y8431037D01*
X3373254Y8426490D01*
X3377801Y8417399D01*
X3391438Y8412853D01*
X3405073Y8412853D01*
X3418710Y8417399D01*
X3423254Y8426490D01*
X3273254Y8508309D02*
G01*
X3273254Y8412853D01*
X3273254Y8508309D02*
G01*
X3236892Y8412853D01*
X3200529Y8508309D02*
G01*
X3236892Y8412853D01*
X3200529Y8508309D02*
G01*
X3200529Y8412853D01*
X3143255Y8508309D02*
G01*
X3152348Y8503762D01*
X3161438Y8494671D01*
X3165983Y8485581D01*
X3170529Y8471946D01*
X3170529Y8449218D01*
X3165983Y8435581D01*
X3161438Y8426490D01*
X3152348Y8417399D01*
X3143255Y8412853D01*
X3125073Y8412853D01*
X3115983Y8417399D01*
X3106892Y8426490D01*
X3102348Y8435581D01*
X3097801Y8449218D01*
X3097801Y8471946D01*
X3102348Y8485581D01*
X3106892Y8494671D01*
X3115983Y8503762D01*
X3125073Y8508309D01*
X3143255Y8508309D01*
X3129620Y8431037D02*
G01*
X3102348Y8403762D01*
X3035983Y8508309D02*
G01*
X3035983Y8412853D01*
X3067801Y8508309D02*
G01*
X3004164Y8508309D01*
X2942348Y8508309D02*
G01*
X2942348Y8412853D01*
X2974164Y8508309D02*
G01*
X2910530Y8508309D01*
M02*
