G04 Layer: TopPasteMaskLayer*
G04 EasyEDA v6.5.23, 2023-05-28 17:35:23*
G04 5b9d0392a9f34ebfbb4243e03fcb58ae,7b9118f9ee4640bfb0881aea6626bb62,10*
G04 Gerber Generator version 0.2*
G04 Scale: 100 percent, Rotated: No, Reflected: No *
G04 Dimensions in millimeters *
G04 leading zeros omitted , absolute positions ,4 integer and 5 decimal *
%FSLAX45Y45*%
%MOMM*%

%AMMACRO1*21,1,$1,$2,0,0,$3*%
%ADD10R,2.0000X1.2000*%
%ADD11R,2.1000X0.9500*%
%ADD12R,0.9500X2.1000*%
%ADD13R,0.9000X0.9000*%
%ADD14MACRO1,0.672X1.575X90.0000*%
%ADD15C,0.0120*%

%LPD*%
G36*
X1688896Y3915511D02*
G01*
X1678889Y3905504D01*
X1678889Y3776979D01*
X1688896Y3767023D01*
X1841703Y3767023D01*
X1851710Y3776979D01*
X1851710Y3905504D01*
X1841703Y3915511D01*
X1804670Y3915511D01*
X1794662Y3905504D01*
X1794662Y3875024D01*
X1784654Y3865016D01*
X1745945Y3865016D01*
X1735937Y3875024D01*
X1735937Y3905504D01*
X1725930Y3915511D01*
G37*
G36*
X1688896Y4233976D02*
G01*
X1678889Y4224020D01*
X1678889Y4095496D01*
X1688896Y4085488D01*
X1725930Y4085488D01*
X1735937Y4095496D01*
X1735937Y4125976D01*
X1745945Y4135983D01*
X1784654Y4135983D01*
X1794662Y4125976D01*
X1794662Y4095496D01*
X1804670Y4085488D01*
X1841703Y4085488D01*
X1851710Y4095496D01*
X1851710Y4224020D01*
X1841703Y4233976D01*
G37*
G36*
X1333296Y3915511D02*
G01*
X1323289Y3905504D01*
X1323289Y3776979D01*
X1333296Y3767023D01*
X1486103Y3767023D01*
X1496110Y3776979D01*
X1496110Y3905504D01*
X1486103Y3915511D01*
X1449070Y3915511D01*
X1439062Y3905504D01*
X1439062Y3875024D01*
X1429054Y3865016D01*
X1390345Y3865016D01*
X1380337Y3875024D01*
X1380337Y3905504D01*
X1370330Y3915511D01*
G37*
G36*
X1333296Y4233976D02*
G01*
X1323289Y4224020D01*
X1323289Y4095496D01*
X1333296Y4085488D01*
X1370330Y4085488D01*
X1380337Y4095496D01*
X1380337Y4125976D01*
X1390345Y4135983D01*
X1429054Y4135983D01*
X1439062Y4125976D01*
X1439062Y4095496D01*
X1449070Y4085488D01*
X1486103Y4085488D01*
X1496110Y4095496D01*
X1496110Y4224020D01*
X1486103Y4233976D01*
G37*
G36*
X939596Y4322876D02*
G01*
X929589Y4312920D01*
X929589Y4184396D01*
X939596Y4174388D01*
X976630Y4174388D01*
X986637Y4184396D01*
X986637Y4214876D01*
X996645Y4224883D01*
X1035354Y4224883D01*
X1045362Y4214876D01*
X1045362Y4184396D01*
X1055370Y4174388D01*
X1092403Y4174388D01*
X1102410Y4184396D01*
X1102410Y4312920D01*
X1092403Y4322876D01*
G37*
G36*
X939596Y4004411D02*
G01*
X929589Y3994404D01*
X929589Y3865879D01*
X939596Y3855923D01*
X1092403Y3855923D01*
X1102410Y3865879D01*
X1102410Y3994404D01*
X1092403Y4004411D01*
X1055370Y4004411D01*
X1045362Y3994404D01*
X1045362Y3963924D01*
X1035354Y3953916D01*
X996645Y3953916D01*
X986637Y3963924D01*
X986637Y3994404D01*
X976630Y4004411D01*
G37*
G36*
X2476296Y4233976D02*
G01*
X2466289Y4224020D01*
X2466289Y4095496D01*
X2476296Y4085488D01*
X2513330Y4085488D01*
X2523337Y4095496D01*
X2523337Y4125976D01*
X2533345Y4135983D01*
X2572054Y4135983D01*
X2582062Y4125976D01*
X2582062Y4095496D01*
X2592070Y4085488D01*
X2629103Y4085488D01*
X2639110Y4095496D01*
X2639110Y4224020D01*
X2629103Y4233976D01*
G37*
G36*
X2476296Y3915511D02*
G01*
X2466289Y3905504D01*
X2466289Y3776979D01*
X2476296Y3767023D01*
X2629103Y3767023D01*
X2639110Y3776979D01*
X2639110Y3905504D01*
X2629103Y3915511D01*
X2592070Y3915511D01*
X2582062Y3905504D01*
X2582062Y3875024D01*
X2572054Y3865016D01*
X2533345Y3865016D01*
X2523337Y3875024D01*
X2523337Y3905504D01*
X2513330Y3915511D01*
G37*
G36*
X3644696Y3928211D02*
G01*
X3634689Y3918204D01*
X3634689Y3789679D01*
X3644696Y3779723D01*
X3797503Y3779723D01*
X3807510Y3789679D01*
X3807510Y3918204D01*
X3797503Y3928211D01*
X3760470Y3928211D01*
X3750462Y3918204D01*
X3750462Y3887724D01*
X3740454Y3877716D01*
X3701745Y3877716D01*
X3691737Y3887724D01*
X3691737Y3918204D01*
X3681729Y3928211D01*
G37*
G36*
X3644696Y4246676D02*
G01*
X3634689Y4236720D01*
X3634689Y4108196D01*
X3644696Y4098188D01*
X3681729Y4098188D01*
X3691737Y4108196D01*
X3691737Y4138676D01*
X3701745Y4148683D01*
X3740454Y4148683D01*
X3750462Y4138676D01*
X3750462Y4108196D01*
X3760470Y4098188D01*
X3797503Y4098188D01*
X3807510Y4108196D01*
X3807510Y4236720D01*
X3797503Y4246676D01*
G37*
G36*
X2083968Y3913022D02*
G01*
X2073960Y3903014D01*
X2073960Y3802227D01*
X2083968Y3792270D01*
X2234031Y3792270D01*
X2244039Y3802227D01*
X2244039Y3903014D01*
X2234031Y3913022D01*
X2197912Y3913022D01*
X2187905Y3903014D01*
X2187905Y3881932D01*
X2177897Y3871925D01*
X2140102Y3871925D01*
X2130094Y3881932D01*
X2130094Y3903014D01*
X2120087Y3913022D01*
G37*
G36*
X2083968Y4208729D02*
G01*
X2073960Y4198772D01*
X2073960Y4097985D01*
X2083968Y4087977D01*
X2120087Y4087977D01*
X2130094Y4097985D01*
X2130094Y4119067D01*
X2140102Y4129074D01*
X2177897Y4129074D01*
X2187905Y4119067D01*
X2187905Y4097985D01*
X2197912Y4087977D01*
X2234031Y4087977D01*
X2244039Y4097985D01*
X2244039Y4198772D01*
X2234031Y4208729D01*
G37*
G36*
X3107385Y5761939D02*
G01*
X3097377Y5751931D01*
X3097377Y5715812D01*
X3107385Y5705805D01*
X3128467Y5705805D01*
X3138474Y5695797D01*
X3138474Y5658002D01*
X3128467Y5647994D01*
X3107385Y5647994D01*
X3097377Y5637987D01*
X3097377Y5601868D01*
X3107385Y5591860D01*
X3208172Y5591860D01*
X3218129Y5601868D01*
X3218129Y5751931D01*
X3208172Y5761939D01*
G37*
G36*
X2811627Y5761939D02*
G01*
X2801670Y5751931D01*
X2801670Y5601868D01*
X2811627Y5591860D01*
X2912414Y5591860D01*
X2922422Y5601868D01*
X2922422Y5637987D01*
X2912414Y5647994D01*
X2891332Y5647994D01*
X2881325Y5658002D01*
X2881325Y5695797D01*
X2891332Y5705805D01*
X2912414Y5705805D01*
X2922422Y5715812D01*
X2922422Y5751931D01*
X2912414Y5761939D01*
G37*
G36*
X2370785Y5419039D02*
G01*
X2360777Y5409031D01*
X2360777Y5372912D01*
X2370785Y5362905D01*
X2391867Y5362905D01*
X2401874Y5352897D01*
X2401874Y5315102D01*
X2391867Y5305094D01*
X2370785Y5305094D01*
X2360777Y5295087D01*
X2360777Y5258968D01*
X2370785Y5248960D01*
X2471572Y5248960D01*
X2481529Y5258968D01*
X2481529Y5409031D01*
X2471572Y5419039D01*
G37*
G36*
X2075027Y5419039D02*
G01*
X2065070Y5409031D01*
X2065070Y5258968D01*
X2075027Y5248960D01*
X2175814Y5248960D01*
X2185822Y5258968D01*
X2185822Y5295087D01*
X2175814Y5305094D01*
X2154732Y5305094D01*
X2144725Y5315102D01*
X2144725Y5352897D01*
X2154732Y5362905D01*
X2175814Y5362905D01*
X2185822Y5372912D01*
X2185822Y5409031D01*
X2175814Y5419039D01*
G37*
G36*
X2370785Y5761939D02*
G01*
X2360777Y5751931D01*
X2360777Y5715812D01*
X2370785Y5705805D01*
X2391867Y5705805D01*
X2401874Y5695797D01*
X2401874Y5658002D01*
X2391867Y5647994D01*
X2370785Y5647994D01*
X2360777Y5637987D01*
X2360777Y5601868D01*
X2370785Y5591860D01*
X2471572Y5591860D01*
X2481529Y5601868D01*
X2481529Y5751931D01*
X2471572Y5761939D01*
G37*
G36*
X2075027Y5761939D02*
G01*
X2065070Y5751931D01*
X2065070Y5601868D01*
X2075027Y5591860D01*
X2175814Y5591860D01*
X2185822Y5601868D01*
X2185822Y5637987D01*
X2175814Y5647994D01*
X2154732Y5647994D01*
X2144725Y5658002D01*
X2144725Y5695797D01*
X2154732Y5705805D01*
X2175814Y5705805D01*
X2185822Y5715812D01*
X2185822Y5751931D01*
X2175814Y5761939D01*
G37*
D10*
G01*
X1809699Y5000193D03*
G01*
X1809699Y4550206D03*
G01*
X1009700Y4550206D03*
G01*
X1009700Y5000193D03*
G01*
X3232099Y5000193D03*
G01*
X3232099Y4550206D03*
G01*
X2432100Y4550206D03*
G01*
X2432100Y5000193D03*
D11*
G01*
X1208189Y7847152D03*
G01*
X1208189Y7720152D03*
G01*
X1208189Y7593152D03*
G01*
X1208189Y7466152D03*
G01*
X1208189Y7339152D03*
G01*
X1208189Y7212152D03*
G01*
X1208189Y7085152D03*
G01*
X1208189Y6958152D03*
G01*
X1208189Y6831152D03*
G01*
X1208189Y6704152D03*
G01*
X1208189Y6577152D03*
G01*
X1208189Y6450152D03*
G01*
X1208189Y6323152D03*
G01*
X1208189Y6196152D03*
D12*
G01*
X1536712Y6046647D03*
G01*
X1663712Y6046647D03*
G01*
X1790712Y6046647D03*
G01*
X1917712Y6046647D03*
G01*
X2044712Y6046647D03*
G01*
X2171712Y6046647D03*
G01*
X2298712Y6046647D03*
G01*
X2425712Y6046647D03*
G01*
X2552712Y6046647D03*
G01*
X2679712Y6046647D03*
D11*
G01*
X3008210Y6196152D03*
G01*
X3008210Y6323152D03*
G01*
X3008210Y6450152D03*
G01*
X3008210Y6577152D03*
G01*
X3008210Y6704152D03*
G01*
X3008210Y6831152D03*
G01*
X3008210Y6958152D03*
G01*
X3008210Y7085152D03*
G01*
X3008210Y7212152D03*
G01*
X3008210Y7339152D03*
G01*
X3008210Y7466152D03*
G01*
X3008210Y7593152D03*
G01*
X3008210Y7720152D03*
G01*
X3008210Y7847152D03*
D13*
G01*
X1958174Y7079056D03*
G01*
X1818195Y7079056D03*
G01*
X2098205Y7079056D03*
G01*
X2098205Y7219061D03*
G01*
X1958200Y7219061D03*
G01*
X1818195Y7219061D03*
G01*
X1818195Y6939051D03*
G01*
X1958200Y6939051D03*
G01*
X2098205Y6939051D03*
G36*
X2946676Y4032882D02*
G01*
X3132096Y4032882D01*
X3136549Y4032775D01*
X3140991Y4032463D01*
X3145416Y4031942D01*
X3149810Y4031216D01*
X3154166Y4030281D01*
X3158472Y4029146D01*
X3162721Y4027810D01*
X3166902Y4026275D01*
X3171007Y4024546D01*
X3175027Y4022628D01*
X3178952Y4020522D01*
X3182774Y4018234D01*
X3186485Y4015770D01*
X3190077Y4013136D01*
X3193539Y4010337D01*
X3196869Y4007375D01*
X3200054Y4004264D01*
X3203092Y4001005D01*
X3205972Y3997609D01*
X3208690Y3994081D01*
X3211240Y3990428D01*
X3213615Y3986662D01*
X3215812Y3982786D01*
X3217826Y3978813D01*
X3219650Y3970883D01*
X3389383Y3970883D01*
X3389383Y3904884D01*
X3219650Y3904884D01*
X3217826Y3896949D01*
X3215812Y3892976D01*
X3213615Y3889100D01*
X3211240Y3885333D01*
X3208690Y3881681D01*
X3205972Y3878153D01*
X3203092Y3874757D01*
X3200054Y3871498D01*
X3196869Y3868386D01*
X3193539Y3865425D01*
X3190077Y3862626D01*
X3186485Y3859992D01*
X3182774Y3857528D01*
X3178952Y3855239D01*
X3175027Y3853134D01*
X3171007Y3851216D01*
X3166902Y3849486D01*
X3162721Y3847952D01*
X3158472Y3846616D01*
X3154166Y3845481D01*
X3149810Y3844546D01*
X3145416Y3843820D01*
X3140991Y3843299D01*
X3136549Y3842986D01*
X3132096Y3842880D01*
X2946676Y3842880D01*
X2942224Y3842986D01*
X2937781Y3843299D01*
X2933357Y3843820D01*
X2928962Y3844546D01*
X2924606Y3845481D01*
X2920301Y3846616D01*
X2916052Y3847952D01*
X2911871Y3849486D01*
X2907766Y3851216D01*
X2903745Y3853134D01*
X2899821Y3855239D01*
X2895998Y3857528D01*
X2892287Y3859992D01*
X2888696Y3862626D01*
X2885234Y3865425D01*
X2881904Y3868386D01*
X2878719Y3871498D01*
X2875681Y3874757D01*
X2872800Y3878153D01*
X2870083Y3881681D01*
X2867533Y3885333D01*
X2865158Y3889100D01*
X2862961Y3892976D01*
X2860946Y3896949D01*
X2859123Y3901013D01*
X2857489Y3905156D01*
X2856054Y3909372D01*
X2854817Y3913652D01*
X2853783Y3917985D01*
X2852953Y3922359D01*
X2852328Y3926771D01*
X2851911Y3931206D01*
X2851703Y3935653D01*
X2851703Y3940108D01*
X2851911Y3944556D01*
X2852328Y3948991D01*
X2852953Y3953403D01*
X2853783Y3957777D01*
X2854817Y3962110D01*
X2856054Y3966390D01*
X2857489Y3970606D01*
X2859123Y3974749D01*
X2860946Y3978813D01*
X2862961Y3982786D01*
X2865158Y3986662D01*
X2867533Y3990428D01*
X2870083Y3994081D01*
X2872800Y3997609D01*
X2875681Y4001005D01*
X2878719Y4004264D01*
X2881904Y4007375D01*
X2885234Y4010337D01*
X2888696Y4013136D01*
X2892287Y4015770D01*
X2895998Y4018234D01*
X2899821Y4020522D01*
X2903745Y4022628D01*
X2907766Y4024546D01*
X2911871Y4026275D01*
X2916052Y4027810D01*
X2920301Y4029146D01*
X2924606Y4030281D01*
X2928962Y4031216D01*
X2933357Y4031942D01*
X2937781Y4032463D01*
X2942224Y4032775D01*
G37*
D14*
G01*
X3310628Y4087012D03*
G01*
X3310628Y3787013D03*
M02*
