G04 Layer: TopSolderMaskLayer*
G04 EasyEDA v6.5.23, 2023-05-28 17:35:23*
G04 5b9d0392a9f34ebfbb4243e03fcb58ae,7b9118f9ee4640bfb0881aea6626bb62,10*
G04 Gerber Generator version 0.2*
G04 Scale: 100 percent, Rotated: No, Reflected: No *
G04 Dimensions in millimeters *
G04 leading zeros omitted , absolute positions ,4 integer and 5 decimal *
%FSLAX45Y45*%
%MOMM*%

%AMMACRO1*1,1,$1,$2,$3*1,1,$1,$4,$5*1,1,$1,0-$2,0-$3*1,1,$1,0-$4,0-$5*20,1,$1,$2,$3,$4,$5,0*20,1,$1,$4,$5,0-$2,0-$3,0*20,1,$1,0-$2,0-$3,0-$4,0-$5,0*20,1,$1,0-$4,0-$5,$2,$3,0*4,1,4,$2,$3,$4,$5,0-$2,0-$3,0-$4,0-$5,$2,$3,0*%
%ADD10MACRO1,0.1016X-0.864X0.7425X0.864X0.7425*%
%ADD11MACRO1,0.1016X-0.864X-0.7425X0.864X-0.7425*%
%ADD12MACRO1,0.1016X0.864X-0.7425X-0.864X-0.7425*%
%ADD13MACRO1,0.1016X0.864X0.7425X-0.864X0.7425*%
%ADD14C,2.0000*%
%ADD15C,2.2032*%
%ADD16MACRO1,0.2032X1X1X1X-1*%
%ADD17MACRO1,0.4X-1.27X0.77X1.27X0.77*%
%ADD18O,2.9399992X1.9400012*%
%ADD19MACRO1,0.1016X-0.8505X0.6038X0.8505X0.6038*%
%ADD20MACRO1,0.1016X-0.8505X-0.6038X0.8505X-0.6038*%
%ADD21MACRO1,0.1016X-0.6038X-0.8505X-0.6038X0.8505*%
%ADD22MACRO1,0.1016X0.6038X-0.8505X0.6038X0.8505*%
%ADD23R,2.1016X1.3016*%
%ADD24MACRO1,0.1016X-1X-0.6X-1X0.6*%
%ADD25MACRO1,0.1016X1.05X0.475X1.05X-0.475*%
%ADD26MACRO1,0.1016X0.475X1.05X0.475X-1.05*%
%ADD27MACRO1,0.1016X-0.45X-0.45X-0.45X0.45*%
%ADD28MACRO1,0.1016X-0.45X-0.4499X-0.45X0.4499*%
%ADD29MACRO1,0.1016X0.7875X-0.336X0.7875X0.336*%
%ADD30MACRO1,0.1016X-1X0.45X1X0.45*%
%ADD31C,0.0134*%

%LPD*%
D10*
G01*
X1765300Y3841249D03*
D11*
G01*
X1765300Y4159750D03*
D10*
G01*
X1409700Y3841249D03*
D11*
G01*
X1409700Y4159750D03*
D12*
G01*
X1016000Y4248650D03*
D13*
G01*
X1016000Y3930149D03*
D12*
G01*
X2552700Y4159750D03*
D13*
G01*
X2552700Y3841249D03*
D10*
G01*
X3721100Y3853949D03*
D11*
G01*
X3721100Y4172450D03*
D14*
G01*
X4305300Y4231093D03*
G01*
X4305300Y4481106D03*
D15*
G01*
X4318000Y5899505D03*
G01*
X4318000Y5649493D03*
G01*
X4318000Y5399506D03*
D16*
G01*
X4318000Y5149494D03*
D17*
G01*
X3683000Y5257800D03*
D18*
G01*
X3683000Y5511800D03*
G01*
X3683000Y5765800D03*
G01*
X3683000Y6019800D03*
D17*
G01*
X3733800Y7048500D03*
D18*
G01*
X3733800Y7302500D03*
G01*
X3733800Y7556500D03*
G01*
X3733800Y7810500D03*
D17*
G01*
X4318000Y6743700D03*
D18*
G01*
X4318000Y6997700D03*
G01*
X4318000Y7251700D03*
G01*
X4318000Y7505700D03*
G01*
X4318000Y7759700D03*
G01*
X4318000Y8013700D03*
D19*
G01*
X2159000Y3852623D03*
D20*
G01*
X2159000Y4148376D03*
D21*
G01*
X3157776Y5676900D03*
D22*
G01*
X2862023Y5676900D03*
D21*
G01*
X2421176Y5334000D03*
D22*
G01*
X2125423Y5334000D03*
D21*
G01*
X2421176Y5676900D03*
D22*
G01*
X2125423Y5676900D03*
D23*
G01*
X1809699Y5000193D03*
D24*
G01*
X1809699Y4550206D03*
G01*
X1009700Y4550206D03*
G01*
X1009700Y5000193D03*
G01*
X3232099Y5000193D03*
G01*
X3232099Y4550206D03*
G01*
X2432100Y4550206D03*
G01*
X2432100Y5000193D03*
D25*
G01*
X1208195Y7847157D03*
G01*
X1208195Y7720157D03*
G01*
X1208195Y7593157D03*
G01*
X1208195Y7466157D03*
G01*
X1208195Y7339157D03*
G01*
X1208195Y7212157D03*
G01*
X1208195Y7085157D03*
G01*
X1208195Y6958157D03*
G01*
X1208195Y6831157D03*
G01*
X1208195Y6704157D03*
G01*
X1208195Y6577157D03*
G01*
X1208195Y6450157D03*
G01*
X1208195Y6323157D03*
G01*
X1208195Y6196157D03*
D26*
G01*
X1536712Y6046659D03*
G01*
X1663712Y6046659D03*
G01*
X1790712Y6046659D03*
G01*
X1917712Y6046659D03*
G01*
X2044712Y6046659D03*
G01*
X2171712Y6046659D03*
G01*
X2298712Y6046659D03*
G01*
X2425712Y6046659D03*
G01*
X2552712Y6046659D03*
G01*
X2679712Y6046659D03*
D25*
G01*
X3008205Y6196157D03*
G01*
X3008205Y6323157D03*
G01*
X3008205Y6450157D03*
G01*
X3008205Y6577157D03*
G01*
X3008205Y6704157D03*
G01*
X3008205Y6831157D03*
G01*
X3008205Y6958157D03*
G01*
X3008205Y7085157D03*
G01*
X3008205Y7212157D03*
G01*
X3008205Y7339157D03*
G01*
X3008205Y7466157D03*
G01*
X3008205Y7593157D03*
G01*
X3008205Y7720157D03*
G01*
X3008205Y7847157D03*
D27*
G01*
X1958174Y7079053D03*
G01*
X1818199Y7079051D03*
G01*
X2098201Y7079051D03*
G01*
X2098201Y7219053D03*
G01*
X1958200Y7219053D03*
G01*
X1818199Y7219053D03*
G01*
X1818199Y6939061D03*
D28*
G01*
X1958200Y6939055D03*
D27*
G01*
X2098201Y6939061D03*
G36*
X2941827Y3837939D02*
G01*
X2937509Y3838194D01*
X2937256Y3838447D01*
X2932684Y3838955D01*
X2932429Y3838955D01*
X2928111Y3839718D01*
X2927858Y3839718D01*
X2923540Y3840479D01*
X2923286Y3840734D01*
X2918968Y3841750D01*
X2918713Y3841750D01*
X2914650Y3843273D01*
X2914395Y3843273D01*
X2910077Y3844797D01*
X2909824Y3844797D01*
X2905759Y3846576D01*
X2905506Y3846576D01*
X2901695Y3848607D01*
X2901441Y3848607D01*
X2893313Y3853179D01*
X2893313Y3853434D01*
X2889504Y3855720D01*
X2889250Y3855973D01*
X2885693Y3858513D01*
X2885440Y3858768D01*
X2882138Y3861562D01*
X2881884Y3861562D01*
X2878581Y3864610D01*
X2875025Y3868165D01*
X2871977Y3871468D01*
X2868929Y3875023D01*
X2866136Y3878579D01*
X2865881Y3878834D01*
X2863341Y3882389D01*
X2863341Y3882644D01*
X2860802Y3886454D01*
X2860802Y3886707D01*
X2858515Y3890518D01*
X2858515Y3890771D01*
X2856484Y3894581D01*
X2856484Y3894836D01*
X2854452Y3898900D01*
X2854452Y3899154D01*
X2852927Y3903218D01*
X2852674Y3903471D01*
X2851404Y3907789D01*
X2851150Y3908044D01*
X2850134Y3912362D01*
X2849879Y3912615D01*
X2848863Y3916934D01*
X2848102Y3921505D01*
X2848102Y3921760D01*
X2847340Y3926078D01*
X2847340Y3926331D01*
X2846831Y3930650D01*
X2846831Y3935476D01*
X2846577Y3935729D01*
X2846577Y3940047D01*
X2846831Y3940302D01*
X2846831Y3945128D01*
X2847340Y3949445D01*
X2847340Y3949700D01*
X2848102Y3954018D01*
X2848102Y3954271D01*
X2848863Y3958589D01*
X2848863Y3958844D01*
X2849879Y3963162D01*
X2850134Y3963415D01*
X2851150Y3967734D01*
X2851404Y3967987D01*
X2852674Y3972305D01*
X2852927Y3972560D01*
X2854452Y3976623D01*
X2854452Y3976878D01*
X2856484Y3980942D01*
X2856484Y3981195D01*
X2858515Y3985005D01*
X2858515Y3985260D01*
X2860802Y3989070D01*
X2860802Y3989323D01*
X2863341Y3993134D01*
X2863341Y3993387D01*
X2865881Y3996944D01*
X2866136Y3997197D01*
X2868929Y4000754D01*
X2871977Y4004310D01*
X2875025Y4007612D01*
X2878581Y4011168D01*
X2881884Y4013962D01*
X2882138Y4014215D01*
X2885440Y4017010D01*
X2885693Y4017263D01*
X2889250Y4019804D01*
X2889504Y4020057D01*
X2893313Y4022344D01*
X2893313Y4022597D01*
X2897377Y4024884D01*
X2901441Y4026915D01*
X2901695Y4027170D01*
X2905506Y4028947D01*
X2905759Y4029202D01*
X2909824Y4030979D01*
X2910077Y4030979D01*
X2914395Y4032504D01*
X2914650Y4032504D01*
X2918713Y4034028D01*
X2918968Y4034028D01*
X2923286Y4035044D01*
X2923540Y4035297D01*
X2927858Y4036060D01*
X2928111Y4036060D01*
X2932429Y4036821D01*
X2932684Y4036821D01*
X2937256Y4037329D01*
X2937509Y4037329D01*
X2941827Y4037837D01*
X3136900Y4037837D01*
X3141218Y4037329D01*
X3141472Y4037329D01*
X3146043Y4036821D01*
X3146297Y4036821D01*
X3150615Y4036060D01*
X3150870Y4036060D01*
X3155188Y4035297D01*
X3155441Y4035044D01*
X3159759Y4034028D01*
X3160013Y4034028D01*
X3168650Y4030979D01*
X3168904Y4030979D01*
X3172968Y4029202D01*
X3173222Y4028947D01*
X3177286Y4027170D01*
X3177286Y4026915D01*
X3181350Y4024884D01*
X3181604Y4024884D01*
X3185413Y4022597D01*
X3185668Y4022344D01*
X3189224Y4020057D01*
X3189477Y4019804D01*
X3193034Y4017263D01*
X3193288Y4017010D01*
X3196590Y4014215D01*
X3196843Y4013962D01*
X3200145Y4011168D01*
X3203702Y4007612D01*
X3206750Y4004310D01*
X3207004Y4004310D01*
X3209797Y4000754D01*
X3210052Y4000754D01*
X3212591Y3997197D01*
X3212845Y3996944D01*
X3215386Y3993387D01*
X3215386Y3993134D01*
X3217925Y3989323D01*
X3217925Y3989070D01*
X3220211Y3985260D01*
X3220211Y3985005D01*
X3222243Y3981195D01*
X3222398Y3981099D01*
X3222398Y3980591D01*
X3222652Y3980337D01*
X3222652Y3979829D01*
X3222752Y3979926D01*
X3223768Y3975862D01*
X3389375Y3975862D01*
X3389383Y3975963D01*
X3390907Y3975709D01*
X3392431Y3974947D01*
X3393447Y3973931D01*
X3394209Y3972407D01*
X3394463Y3970883D01*
X3394456Y3970781D01*
X3394456Y3904995D01*
X3394463Y3904884D01*
X3394209Y3903360D01*
X3393447Y3901836D01*
X3392431Y3900820D01*
X3390907Y3900058D01*
X3389383Y3899804D01*
X3389375Y3899915D01*
X3223768Y3899915D01*
X3222752Y3895852D01*
X3222652Y3895933D01*
X3222652Y3895425D01*
X3222398Y3895171D01*
X3222398Y3894663D01*
X3222243Y3894581D01*
X3220211Y3890771D01*
X3220211Y3890518D01*
X3217925Y3886707D01*
X3217925Y3886454D01*
X3215386Y3882644D01*
X3215386Y3882389D01*
X3212845Y3878834D01*
X3212591Y3878579D01*
X3210052Y3875023D01*
X3209797Y3875023D01*
X3207004Y3871468D01*
X3206750Y3871468D01*
X3203702Y3868165D01*
X3200145Y3864610D01*
X3196843Y3861562D01*
X3196590Y3861562D01*
X3193288Y3858768D01*
X3193034Y3858513D01*
X3189477Y3855973D01*
X3189224Y3855720D01*
X3185668Y3853434D01*
X3185413Y3853179D01*
X3181604Y3850894D01*
X3181350Y3850894D01*
X3177286Y3848607D01*
X3173222Y3846576D01*
X3172968Y3846576D01*
X3168904Y3844797D01*
X3168650Y3844797D01*
X3160013Y3841750D01*
X3159759Y3841750D01*
X3155441Y3840734D01*
X3155188Y3840479D01*
X3150870Y3839718D01*
X3150615Y3839718D01*
X3146297Y3838955D01*
X3146043Y3838955D01*
X3141472Y3838447D01*
X3141218Y3838194D01*
X3136900Y3837939D01*
G37*
D29*
G01*
X3310628Y4087012D03*
G01*
X3310628Y3787013D03*
D30*
G01*
X952500Y7213600D03*
G01*
X952500Y7086600D03*
G01*
X952500Y6959600D03*
G01*
X952500Y6832600D03*
G01*
X952500Y6705600D03*
G01*
X952500Y6578600D03*
G01*
X952500Y6451600D03*
G01*
X952500Y6324600D03*
G01*
X952500Y6197600D03*
G01*
X952500Y7340600D03*
M02*
