G04 Layer: TopSilkscreenLayer*
G04 EasyEDA v6.5.23, 2023-05-28 17:35:23*
G04 5b9d0392a9f34ebfbb4243e03fcb58ae,7b9118f9ee4640bfb0881aea6626bb62,10*
G04 Gerber Generator version 0.2*
G04 Scale: 100 percent, Rotated: No, Reflected: No *
G04 Dimensions in millimeters *
G04 leading zeros omitted , absolute positions ,4 integer and 5 decimal *
%FSLAX45Y45*%
%MOMM*%

%ADD10C,0.2000*%
%ADD11C,0.1524*%
%ADD12C,0.2540*%
%ADD13C,0.3000*%

%LPD*%
D10*
X3965193Y4532376D02*
G01*
X3965193Y4450334D01*
X3924300Y4491481D02*
G01*
X4006088Y4491481D01*
X3924300Y4199381D02*
G01*
X4006088Y4199381D01*
X1854200Y8330437D02*
G01*
X1854200Y8234934D01*
X1854200Y8330437D02*
G01*
X1913381Y8330437D01*
X1854200Y8284971D02*
G01*
X1890521Y8284971D01*
X1854200Y8234934D02*
G01*
X1913381Y8234934D01*
X2006854Y8316976D02*
G01*
X1997709Y8325865D01*
X1984247Y8330437D01*
X1965959Y8330437D01*
X1952497Y8325865D01*
X1943354Y8316976D01*
X1943354Y8307831D01*
X1947925Y8298687D01*
X1952497Y8294115D01*
X1961388Y8289544D01*
X1988820Y8280400D01*
X1997709Y8276081D01*
X2002281Y8271510D01*
X2006854Y8262365D01*
X2006854Y8248650D01*
X1997709Y8239505D01*
X1984247Y8234934D01*
X1965959Y8234934D01*
X1952497Y8239505D01*
X1943354Y8248650D01*
X2036825Y8330437D02*
G01*
X2036825Y8234934D01*
X2036825Y8330437D02*
G01*
X2077720Y8330437D01*
X2091436Y8325865D01*
X2096008Y8321294D01*
X2100579Y8312404D01*
X2100579Y8298687D01*
X2096008Y8289544D01*
X2091436Y8284971D01*
X2077720Y8280400D01*
X2036825Y8280400D01*
X2139695Y8330437D02*
G01*
X2189734Y8330437D01*
X2162302Y8294115D01*
X2176018Y8294115D01*
X2185161Y8289544D01*
X2189734Y8284971D01*
X2194306Y8271510D01*
X2194306Y8262365D01*
X2189734Y8248650D01*
X2180590Y8239505D01*
X2166874Y8234934D01*
X2153411Y8234934D01*
X2139695Y8239505D01*
X2135124Y8244078D01*
X2130552Y8253221D01*
X2228850Y8307831D02*
G01*
X2228850Y8312404D01*
X2233168Y8321294D01*
X2237740Y8325865D01*
X2246884Y8330437D01*
X2265172Y8330437D01*
X2274315Y8325865D01*
X2278634Y8321294D01*
X2283206Y8312404D01*
X2283206Y8303260D01*
X2278634Y8294115D01*
X2269743Y8280400D01*
X2224277Y8234934D01*
X2287777Y8234934D01*
D11*
X1767078Y3658107D02*
G01*
X1761744Y3668521D01*
X1751329Y3678936D01*
X1741170Y3684015D01*
X1720342Y3684015D01*
X1709928Y3678936D01*
X1699513Y3668521D01*
X1694179Y3658107D01*
X1689100Y3642360D01*
X1689100Y3616452D01*
X1694179Y3600957D01*
X1699513Y3590544D01*
X1709928Y3580129D01*
X1720342Y3575050D01*
X1741170Y3575050D01*
X1751329Y3580129D01*
X1761744Y3590544D01*
X1767078Y3600957D01*
X1801368Y3663187D02*
G01*
X1811781Y3668521D01*
X1827276Y3684015D01*
X1827276Y3575050D01*
X1398778Y3658107D02*
G01*
X1393444Y3668521D01*
X1383029Y3678936D01*
X1372870Y3684015D01*
X1352042Y3684015D01*
X1341628Y3678936D01*
X1331213Y3668521D01*
X1325879Y3658107D01*
X1320800Y3642360D01*
X1320800Y3616452D01*
X1325879Y3600957D01*
X1331213Y3590544D01*
X1341628Y3580129D01*
X1352042Y3575050D01*
X1372870Y3575050D01*
X1383029Y3580129D01*
X1393444Y3590544D01*
X1398778Y3600957D01*
X1438147Y3658107D02*
G01*
X1438147Y3663187D01*
X1443481Y3673602D01*
X1448562Y3678936D01*
X1458976Y3684015D01*
X1479804Y3684015D01*
X1490218Y3678936D01*
X1495297Y3673602D01*
X1500631Y3663187D01*
X1500631Y3652773D01*
X1495297Y3642360D01*
X1484884Y3626865D01*
X1433068Y3575050D01*
X1505712Y3575050D01*
X992378Y4115307D02*
G01*
X987044Y4125721D01*
X976629Y4136136D01*
X966470Y4141215D01*
X945642Y4141215D01*
X935228Y4136136D01*
X924813Y4125721D01*
X919479Y4115307D01*
X914400Y4099560D01*
X914400Y4073652D01*
X919479Y4058157D01*
X924813Y4047744D01*
X935228Y4037329D01*
X945642Y4032250D01*
X966470Y4032250D01*
X976629Y4037329D01*
X987044Y4047744D01*
X992378Y4058157D01*
X1037081Y4141215D02*
G01*
X1094231Y4141215D01*
X1062989Y4099560D01*
X1078484Y4099560D01*
X1088897Y4094479D01*
X1094231Y4089400D01*
X1099312Y4073652D01*
X1099312Y4063237D01*
X1094231Y4047744D01*
X1083818Y4037329D01*
X1068070Y4032250D01*
X1052576Y4032250D01*
X1037081Y4037329D01*
X1031747Y4042410D01*
X1026668Y4052823D01*
X2541777Y3645407D02*
G01*
X2536443Y3655821D01*
X2526029Y3666236D01*
X2515870Y3671315D01*
X2495041Y3671315D01*
X2484627Y3666236D01*
X2474213Y3655821D01*
X2468879Y3645407D01*
X2463800Y3629660D01*
X2463800Y3603752D01*
X2468879Y3588257D01*
X2474213Y3577844D01*
X2484627Y3567429D01*
X2495041Y3562350D01*
X2515870Y3562350D01*
X2526029Y3567429D01*
X2536443Y3577844D01*
X2541777Y3588257D01*
X2627884Y3671315D02*
G01*
X2576068Y3598671D01*
X2654045Y3598671D01*
X2627884Y3671315D02*
G01*
X2627884Y3562350D01*
X3710177Y3658107D02*
G01*
X3704843Y3668521D01*
X3694429Y3678936D01*
X3684270Y3684015D01*
X3663441Y3684015D01*
X3653027Y3678936D01*
X3642613Y3668521D01*
X3637279Y3658107D01*
X3632200Y3642360D01*
X3632200Y3616452D01*
X3637279Y3600957D01*
X3642613Y3590544D01*
X3653027Y3580129D01*
X3663441Y3575050D01*
X3684270Y3575050D01*
X3694429Y3580129D01*
X3704843Y3590544D01*
X3710177Y3600957D01*
X3806697Y3684015D02*
G01*
X3754881Y3684015D01*
X3749547Y3637279D01*
X3754881Y3642360D01*
X3770375Y3647694D01*
X3785870Y3647694D01*
X3801618Y3642360D01*
X3812031Y3632200D01*
X3817111Y3616452D01*
X3817111Y3606037D01*
X3812031Y3590544D01*
X3801618Y3580129D01*
X3785870Y3575050D01*
X3770375Y3575050D01*
X3754881Y3580129D01*
X3749547Y3585210D01*
X3744468Y3595623D01*
X4140200Y3925315D02*
G01*
X4140200Y3816350D01*
X4140200Y3925315D02*
G01*
X4186936Y3925315D01*
X4202429Y3920236D01*
X4207763Y3914902D01*
X4212843Y3904487D01*
X4212843Y3894073D01*
X4207763Y3883660D01*
X4202429Y3878579D01*
X4186936Y3873500D01*
X4140200Y3873500D02*
G01*
X4186936Y3873500D01*
X4202429Y3868165D01*
X4207763Y3863086D01*
X4212843Y3852671D01*
X4212843Y3836923D01*
X4207763Y3826510D01*
X4202429Y3821429D01*
X4186936Y3816350D01*
X4140200Y3816350D01*
X4288790Y3925315D02*
G01*
X4247134Y3816350D01*
X4288790Y3925315D02*
G01*
X4330445Y3816350D01*
X4262881Y3852671D02*
G01*
X4314697Y3852671D01*
X4401058Y3925315D02*
G01*
X4401058Y3816350D01*
X4364736Y3925315D02*
G01*
X4437379Y3925315D01*
X4507991Y3925315D02*
G01*
X4507991Y3816350D01*
X4471670Y3925315D02*
G01*
X4544313Y3925315D01*
X4025900Y6351015D02*
G01*
X4025900Y6242050D01*
X4025900Y6351015D02*
G01*
X4072636Y6351015D01*
X4088129Y6345936D01*
X4093463Y6340602D01*
X4098543Y6330187D01*
X4098543Y6319773D01*
X4093463Y6309360D01*
X4088129Y6304279D01*
X4072636Y6299200D01*
X4025900Y6299200D02*
G01*
X4072636Y6299200D01*
X4088129Y6293865D01*
X4093463Y6288786D01*
X4098543Y6278371D01*
X4098543Y6262623D01*
X4093463Y6252210D01*
X4088129Y6247129D01*
X4072636Y6242050D01*
X4025900Y6242050D01*
X4132834Y6351015D02*
G01*
X4132834Y6242050D01*
X4132834Y6351015D02*
G01*
X4174490Y6242050D01*
X4216145Y6351015D02*
G01*
X4174490Y6242050D01*
X4216145Y6351015D02*
G01*
X4216145Y6242050D01*
X4250436Y6351015D02*
G01*
X4250436Y6242050D01*
X4250436Y6351015D02*
G01*
X4318000Y6351015D01*
X4250436Y6299200D02*
G01*
X4291838Y6299200D01*
X4250436Y6242050D02*
G01*
X4318000Y6242050D01*
X4357370Y6325107D02*
G01*
X4357370Y6330187D01*
X4362450Y6340602D01*
X4367784Y6345936D01*
X4378197Y6351015D01*
X4399025Y6351015D01*
X4409440Y6345936D01*
X4414520Y6340602D01*
X4419600Y6330187D01*
X4419600Y6319773D01*
X4414520Y6309360D01*
X4404106Y6293865D01*
X4352290Y6242050D01*
X4424934Y6242050D01*
X4485131Y6351015D02*
G01*
X4469638Y6345936D01*
X4464304Y6335521D01*
X4464304Y6325107D01*
X4469638Y6314694D01*
X4480052Y6309360D01*
X4500879Y6304279D01*
X4516374Y6299200D01*
X4526788Y6288786D01*
X4531868Y6278371D01*
X4531868Y6262623D01*
X4526788Y6252210D01*
X4521454Y6247129D01*
X4505959Y6242050D01*
X4485131Y6242050D01*
X4469638Y6247129D01*
X4464304Y6252210D01*
X4459224Y6262623D01*
X4459224Y6278371D01*
X4464304Y6288786D01*
X4474718Y6299200D01*
X4490465Y6304279D01*
X4511040Y6309360D01*
X4521454Y6314694D01*
X4526788Y6325107D01*
X4526788Y6335521D01*
X4521454Y6345936D01*
X4505959Y6351015D01*
X4485131Y6351015D01*
X4597400Y6351015D02*
G01*
X4581906Y6345936D01*
X4571491Y6330187D01*
X4566158Y6304279D01*
X4566158Y6288786D01*
X4571491Y6262623D01*
X4581906Y6247129D01*
X4597400Y6242050D01*
X4607813Y6242050D01*
X4623308Y6247129D01*
X4633722Y6262623D01*
X4639056Y6288786D01*
X4639056Y6304279D01*
X4633722Y6330187D01*
X4623308Y6345936D01*
X4607813Y6351015D01*
X4597400Y6351015D01*
X3543300Y6338315D02*
G01*
X3543300Y6229350D01*
X3543300Y6229350D02*
G01*
X3605529Y6229350D01*
X3717797Y6312407D02*
G01*
X3712718Y6322821D01*
X3702304Y6333236D01*
X3691890Y6338315D01*
X3671061Y6338315D01*
X3660647Y6333236D01*
X3650234Y6322821D01*
X3645154Y6312407D01*
X3639820Y6296660D01*
X3639820Y6270752D01*
X3645154Y6255257D01*
X3650234Y6244844D01*
X3660647Y6234429D01*
X3671061Y6229350D01*
X3691890Y6229350D01*
X3702304Y6234429D01*
X3712718Y6244844D01*
X3717797Y6255257D01*
X3752088Y6338315D02*
G01*
X3752088Y6229350D01*
X3752088Y6338315D02*
G01*
X3788409Y6338315D01*
X3804158Y6333236D01*
X3814572Y6322821D01*
X3819652Y6312407D01*
X3824986Y6296660D01*
X3824986Y6270752D01*
X3819652Y6255257D01*
X3814572Y6244844D01*
X3804158Y6234429D01*
X3788409Y6229350D01*
X3752088Y6229350D01*
X3606800Y8116315D02*
G01*
X3606800Y8007350D01*
X3606800Y8116315D02*
G01*
X3653536Y8116315D01*
X3669029Y8111236D01*
X3674363Y8105902D01*
X3679443Y8095487D01*
X3679443Y8085073D01*
X3674363Y8074660D01*
X3669029Y8069579D01*
X3653536Y8064500D01*
X3606800Y8064500D02*
G01*
X3653536Y8064500D01*
X3669029Y8059165D01*
X3674363Y8054086D01*
X3679443Y8043671D01*
X3679443Y8027923D01*
X3674363Y8017510D01*
X3669029Y8012429D01*
X3653536Y8007350D01*
X3606800Y8007350D01*
X3750309Y8116315D02*
G01*
X3750309Y8007350D01*
X3713734Y8116315D02*
G01*
X3786631Y8116315D01*
X3886200Y8344915D02*
G01*
X3886200Y8266937D01*
X3891279Y8251444D01*
X3901693Y8241029D01*
X3917441Y8235950D01*
X3927856Y8235950D01*
X3943350Y8241029D01*
X3953763Y8251444D01*
X3958843Y8266937D01*
X3958843Y8344915D01*
X4034790Y8344915D02*
G01*
X3993134Y8235950D01*
X4034790Y8344915D02*
G01*
X4076445Y8235950D01*
X4008881Y8272271D02*
G01*
X4060697Y8272271D01*
X4110736Y8344915D02*
G01*
X4110736Y8235950D01*
X4110736Y8344915D02*
G01*
X4157472Y8344915D01*
X4172965Y8339836D01*
X4178300Y8334502D01*
X4183379Y8324087D01*
X4183379Y8313673D01*
X4178300Y8303260D01*
X4172965Y8298179D01*
X4157472Y8293100D01*
X4110736Y8293100D01*
X4147058Y8293100D02*
G01*
X4183379Y8235950D01*
X4253991Y8344915D02*
G01*
X4253991Y8235950D01*
X4217670Y8344915D02*
G01*
X4290313Y8344915D01*
X2095500Y3671315D02*
G01*
X2095500Y3562350D01*
X2095500Y3671315D02*
G01*
X2142236Y3671315D01*
X2157729Y3666236D01*
X2163063Y3660902D01*
X2168143Y3650487D01*
X2168143Y3640073D01*
X2163063Y3629660D01*
X2157729Y3624579D01*
X2142236Y3619500D01*
X2095500Y3619500D01*
X2131822Y3619500D02*
G01*
X2168143Y3562350D01*
X2202434Y3650487D02*
G01*
X2212847Y3655821D01*
X2228595Y3671315D01*
X2228595Y3562350D01*
X2921000Y5525515D02*
G01*
X2921000Y5416550D01*
X2921000Y5525515D02*
G01*
X2967736Y5525515D01*
X2983229Y5520436D01*
X2988563Y5515102D01*
X2993643Y5504687D01*
X2993643Y5494273D01*
X2988563Y5483860D01*
X2983229Y5478779D01*
X2967736Y5473700D01*
X2921000Y5473700D01*
X2957322Y5473700D02*
G01*
X2993643Y5416550D01*
X3033268Y5499607D02*
G01*
X3033268Y5504687D01*
X3038347Y5515102D01*
X3043681Y5520436D01*
X3054095Y5525515D01*
X3074670Y5525515D01*
X3085084Y5520436D01*
X3090418Y5515102D01*
X3095497Y5504687D01*
X3095497Y5494273D01*
X3090418Y5483860D01*
X3080004Y5468365D01*
X3027934Y5416550D01*
X3100831Y5416550D01*
X1803400Y5398515D02*
G01*
X1803400Y5289550D01*
X1803400Y5398515D02*
G01*
X1850136Y5398515D01*
X1865629Y5393436D01*
X1870963Y5388102D01*
X1876044Y5377687D01*
X1876044Y5367273D01*
X1870963Y5356860D01*
X1865629Y5351779D01*
X1850136Y5346700D01*
X1803400Y5346700D01*
X1839721Y5346700D02*
G01*
X1876044Y5289550D01*
X1920747Y5398515D02*
G01*
X1977897Y5398515D01*
X1946909Y5356860D01*
X1962404Y5356860D01*
X1972818Y5351779D01*
X1977897Y5346700D01*
X1983231Y5330952D01*
X1983231Y5320537D01*
X1977897Y5305044D01*
X1967484Y5294629D01*
X1951990Y5289550D01*
X1936495Y5289550D01*
X1920747Y5294629D01*
X1915668Y5299710D01*
X1910334Y5310123D01*
X1803400Y5741415D02*
G01*
X1803400Y5632450D01*
X1803400Y5741415D02*
G01*
X1850136Y5741415D01*
X1865629Y5736336D01*
X1870963Y5731002D01*
X1876044Y5720587D01*
X1876044Y5710173D01*
X1870963Y5699760D01*
X1865629Y5694679D01*
X1850136Y5689600D01*
X1803400Y5689600D01*
X1839721Y5689600D02*
G01*
X1876044Y5632450D01*
X1962404Y5741415D02*
G01*
X1910334Y5668771D01*
X1988311Y5668771D01*
X1962404Y5741415D02*
G01*
X1962404Y5632450D01*
X1181049Y5246166D02*
G01*
X1181049Y5136946D01*
X1181049Y5246166D02*
G01*
X1227785Y5246166D01*
X1243533Y5240832D01*
X1248613Y5235752D01*
X1253947Y5225338D01*
X1253947Y5214924D01*
X1248613Y5204510D01*
X1243533Y5199430D01*
X1227785Y5194096D01*
X1181049Y5194096D01*
X1217371Y5194096D02*
G01*
X1253947Y5136946D01*
X1288237Y5246166D02*
G01*
X1288237Y5136946D01*
X1288237Y5246166D02*
G01*
X1355547Y5246166D01*
X1288237Y5194096D02*
G01*
X1329639Y5194096D01*
X1288237Y5136946D02*
G01*
X1355547Y5136946D01*
X1462735Y5230672D02*
G01*
X1452321Y5240832D01*
X1436827Y5246166D01*
X1415999Y5246166D01*
X1400251Y5240832D01*
X1389837Y5230672D01*
X1389837Y5220258D01*
X1395171Y5209844D01*
X1400251Y5204510D01*
X1410665Y5199430D01*
X1441907Y5189016D01*
X1452321Y5183682D01*
X1457401Y5178602D01*
X1462735Y5168188D01*
X1462735Y5152694D01*
X1452321Y5142280D01*
X1436827Y5136946D01*
X1415999Y5136946D01*
X1400251Y5142280D01*
X1389837Y5152694D01*
X1497025Y5246166D02*
G01*
X1497025Y5136946D01*
X1497025Y5246166D02*
G01*
X1564589Y5246166D01*
X1497025Y5194096D02*
G01*
X1538427Y5194096D01*
X1497025Y5136946D02*
G01*
X1564589Y5136946D01*
X1635201Y5246166D02*
G01*
X1635201Y5136946D01*
X1598879Y5246166D02*
G01*
X1671523Y5246166D01*
X2654249Y5246166D02*
G01*
X2654249Y5136946D01*
X2654249Y5246166D02*
G01*
X2700985Y5246166D01*
X2716733Y5240832D01*
X2721813Y5235752D01*
X2727147Y5225338D01*
X2727147Y5209844D01*
X2721813Y5199430D01*
X2716733Y5194096D01*
X2700985Y5189016D01*
X2654249Y5189016D01*
X2761437Y5246166D02*
G01*
X2761437Y5136946D01*
X2761437Y5246166D02*
G01*
X2808173Y5246166D01*
X2823667Y5240832D01*
X2828747Y5235752D01*
X2834081Y5225338D01*
X2834081Y5214924D01*
X2828747Y5204510D01*
X2823667Y5199430D01*
X2808173Y5194096D01*
X2761437Y5194096D01*
X2797759Y5194096D02*
G01*
X2834081Y5136946D01*
X2899613Y5246166D02*
G01*
X2889199Y5240832D01*
X2878785Y5230672D01*
X2873451Y5220258D01*
X2868371Y5204510D01*
X2868371Y5178602D01*
X2873451Y5163108D01*
X2878785Y5152694D01*
X2889199Y5142280D01*
X2899613Y5136946D01*
X2920187Y5136946D01*
X2930601Y5142280D01*
X2941015Y5152694D01*
X2946349Y5163108D01*
X2951429Y5178602D01*
X2951429Y5204510D01*
X2946349Y5220258D01*
X2941015Y5230672D01*
X2930601Y5240832D01*
X2920187Y5246166D01*
X2899613Y5246166D01*
X3063697Y5220258D02*
G01*
X3058617Y5230672D01*
X3048203Y5240832D01*
X3037789Y5246166D01*
X3016961Y5246166D01*
X3006547Y5240832D01*
X2996133Y5230672D01*
X2991053Y5220258D01*
X2985719Y5204510D01*
X2985719Y5178602D01*
X2991053Y5163108D01*
X2996133Y5152694D01*
X3006547Y5142280D01*
X3016961Y5136946D01*
X3037789Y5136946D01*
X3048203Y5142280D01*
X3058617Y5152694D01*
X3063697Y5163108D01*
X3063697Y5178602D01*
X3037789Y5178602D02*
G01*
X3063697Y5178602D01*
X3263150Y7274458D02*
G01*
X3185172Y7274458D01*
X3169678Y7269378D01*
X3159264Y7258964D01*
X3154184Y7243216D01*
X3154184Y7232802D01*
X3159264Y7217308D01*
X3169678Y7206894D01*
X3185172Y7201814D01*
X3263150Y7201814D01*
X3242322Y7167524D02*
G01*
X3247656Y7157110D01*
X3263150Y7141362D01*
X3154184Y7141362D01*
X3009900Y4331715D02*
G01*
X3009900Y4253737D01*
X3014979Y4238244D01*
X3025393Y4227829D01*
X3041141Y4222750D01*
X3051556Y4222750D01*
X3067050Y4227829D01*
X3077463Y4238244D01*
X3082543Y4253737D01*
X3082543Y4331715D01*
X3122168Y4305807D02*
G01*
X3122168Y4310887D01*
X3127247Y4321302D01*
X3132581Y4326636D01*
X3142995Y4331715D01*
X3163570Y4331715D01*
X3173984Y4326636D01*
X3179318Y4321302D01*
X3184397Y4310887D01*
X3184397Y4300473D01*
X3179318Y4290060D01*
X3168904Y4274565D01*
X3116834Y4222750D01*
X3189731Y4222750D01*
X1874560Y3759380D02*
G01*
X1874560Y3907878D01*
X1656039Y3907878D02*
G01*
X1656039Y3759380D01*
X1671279Y3744140D02*
G01*
X1859320Y3744140D01*
X1874560Y4241619D02*
G01*
X1874560Y4093121D01*
X1656039Y4093121D02*
G01*
X1656039Y4241619D01*
X1671279Y4256859D02*
G01*
X1859320Y4256859D01*
X1518960Y3759380D02*
G01*
X1518960Y3907878D01*
X1300439Y3907878D02*
G01*
X1300439Y3759380D01*
X1315679Y3744140D02*
G01*
X1503720Y3744140D01*
X1518960Y4241619D02*
G01*
X1518960Y4093121D01*
X1300439Y4093121D02*
G01*
X1300439Y4241619D01*
X1315679Y4256859D02*
G01*
X1503720Y4256859D01*
X906739Y4330519D02*
G01*
X906739Y4182021D01*
X1125260Y4182021D02*
G01*
X1125260Y4330519D01*
X1110020Y4345759D02*
G01*
X921979Y4345759D01*
X906739Y3848280D02*
G01*
X906739Y3996778D01*
X1125260Y3996778D02*
G01*
X1125260Y3848280D01*
X1110020Y3833040D02*
G01*
X921979Y3833040D01*
X2443439Y4241619D02*
G01*
X2443439Y4093121D01*
X2661960Y4093121D02*
G01*
X2661960Y4241619D01*
X2646720Y4256859D02*
G01*
X2458679Y4256859D01*
X2443439Y3759380D02*
G01*
X2443439Y3907878D01*
X2661960Y3907878D02*
G01*
X2661960Y3759380D01*
X2646720Y3744140D02*
G01*
X2458679Y3744140D01*
X3830360Y3772080D02*
G01*
X3830360Y3920578D01*
X3611839Y3920578D02*
G01*
X3611839Y3772080D01*
X3627079Y3756840D02*
G01*
X3815120Y3756840D01*
X3830360Y4254319D02*
G01*
X3830360Y4105821D01*
X3611839Y4105821D02*
G01*
X3611839Y4254319D01*
X3627079Y4269559D02*
G01*
X3815120Y4269559D01*
D12*
X4076700Y4203694D02*
G01*
X4140200Y4203694D01*
X4140200Y4508494D01*
X4067802Y4508494D01*
X4647796Y3981094D02*
G01*
X4647796Y4731095D01*
X4647796Y3981094D02*
G01*
X4067802Y3981094D01*
X4067802Y4731095D01*
X4647796Y4731095D01*
X4067809Y4297260D02*
G01*
X4067809Y4273384D01*
X4572000Y6159500D02*
G01*
X4660900Y6159500D01*
X4660900Y4889500D01*
X4216400Y4889500D01*
X4572000Y6159500D02*
G01*
X4216400Y6159500D01*
X4064000Y5270500D02*
G01*
X4064000Y5778500D01*
X4064000Y4889500D02*
G01*
X4064000Y5080000D01*
X4064000Y6159500D02*
G01*
X4064000Y5969000D01*
D13*
X3517900Y6146800D02*
G01*
X3848100Y6146800D01*
X3848100Y5130800D01*
X3517900Y5130800D01*
X3517900Y6146800D01*
X3568700Y7937500D02*
G01*
X3898900Y7937500D01*
X3898900Y6921500D01*
X3568700Y6921500D01*
X3568700Y7937500D01*
X4152900Y8140700D02*
G01*
X4483100Y8140700D01*
X4483100Y6616700D01*
X4152900Y6616700D01*
X4152900Y8140700D01*
D11*
X2051090Y3905379D02*
G01*
X2051090Y3769387D01*
X2266909Y3769387D01*
X2266909Y3905379D01*
X2051090Y4095620D02*
G01*
X2051090Y4231612D01*
X2266909Y4231612D01*
X2266909Y4095620D01*
X3105020Y5568990D02*
G01*
X3241012Y5568990D01*
X3241012Y5784809D01*
X3105020Y5784809D01*
X2914779Y5568990D02*
G01*
X2778787Y5568990D01*
X2778787Y5784809D01*
X2914779Y5784809D01*
X2368420Y5226090D02*
G01*
X2504412Y5226090D01*
X2504412Y5441909D01*
X2368420Y5441909D01*
X2178179Y5226090D02*
G01*
X2042187Y5226090D01*
X2042187Y5441909D01*
X2178179Y5441909D01*
X2368420Y5568990D02*
G01*
X2504412Y5568990D01*
X2504412Y5784809D01*
X2368420Y5784809D01*
X2178179Y5568990D02*
G01*
X2042187Y5568990D01*
X2042187Y5784809D01*
X2178179Y5784809D01*
D12*
X1117587Y4470400D02*
G01*
X1701787Y4470400D01*
X1117587Y5080000D02*
G01*
X1701787Y5080000D01*
X1109675Y4902088D02*
G01*
X1109675Y4917076D01*
X1709676Y4902088D02*
G01*
X1709676Y4648311D01*
X1109675Y4902088D02*
G01*
X1109675Y4648311D01*
X2539987Y4470400D02*
G01*
X3124187Y4470400D01*
X2539987Y5080000D02*
G01*
X3124187Y5080000D01*
X2532075Y4902088D02*
G01*
X2532075Y4917076D01*
X3132076Y4902088D02*
G01*
X3132076Y4648311D01*
X2532075Y4902088D02*
G01*
X2532075Y4648311D01*
X3008208Y8594552D02*
G01*
X3008208Y7947962D01*
X1208206Y8594552D02*
G01*
X1208206Y7949554D01*
X3008208Y8594552D02*
G01*
X1208206Y8594552D01*
X3008208Y7966156D02*
G01*
X1208206Y7966156D01*
X3009907Y7915269D02*
G01*
X3009907Y7966156D01*
X2747822Y6044554D02*
G01*
X3009907Y6044554D01*
X3009907Y6128034D01*
X1208206Y6128034D02*
G01*
X1208206Y6044554D01*
X1468594Y6044554D01*
X1208206Y7966156D02*
G01*
X1208206Y7915269D01*
D11*
X3253117Y3704394D02*
G01*
X2987880Y3704394D01*
X2987880Y3819276D01*
X3253117Y4169630D02*
G01*
X2987880Y4169630D01*
X2987880Y4054749D01*
G75*
G01*
X1656039Y3759380D02*
G03*
X1671279Y3744140I15240J0D01*
G75*
G01*
X1859321Y3744140D02*
G03*
X1874561Y3759380I0J15240D01*
G75*
G01*
X1656039Y4241620D02*
G02*
X1671279Y4256860I15240J0D01*
G75*
G01*
X1859321Y4256860D02*
G02*
X1874561Y4241620I0J-15240D01*
G75*
G01*
X1300439Y3759380D02*
G03*
X1315679Y3744140I15240J0D01*
G75*
G01*
X1503721Y3744140D02*
G03*
X1518961Y3759380I0J15240D01*
G75*
G01*
X1300439Y4241620D02*
G02*
X1315679Y4256860I15240J0D01*
G75*
G01*
X1503721Y4256860D02*
G02*
X1518961Y4241620I0J-15240D01*
G75*
G01*
X1125261Y4330520D02*
G03*
X1110021Y4345760I-15240J0D01*
G75*
G01*
X921979Y4345760D02*
G03*
X906739Y4330520I0J-15240D01*
G75*
G01*
X1125261Y3848280D02*
G02*
X1110021Y3833040I-15240J0D01*
G75*
G01*
X921979Y3833040D02*
G02*
X906739Y3848280I0J15240D01*
G75*
G01*
X2661961Y4241620D02*
G03*
X2646721Y4256860I-15240J0D01*
G75*
G01*
X2458679Y4256860D02*
G03*
X2443439Y4241620I0J-15240D01*
G75*
G01*
X2661961Y3759380D02*
G02*
X2646721Y3744140I-15240J0D01*
G75*
G01*
X2458679Y3744140D02*
G02*
X2443439Y3759380I0J15240D01*
G75*
G01*
X3611839Y3772080D02*
G03*
X3627079Y3756840I15240J0D01*
G75*
G01*
X3815121Y3756840D02*
G03*
X3830361Y3772080I0J15240D01*
G75*
G01*
X3611839Y4254320D02*
G02*
X3627079Y4269560I15240J0D01*
G75*
G01*
X3815121Y4269560D02*
G02*
X3830361Y4254320I0J-15240D01*
D12*
G75*
G01
X1580566Y4775200D02*
G03X1580566Y4775200I-170866J0D01*
G75*
G01
X1263294Y4978400D02*
G03X1263294Y4978400I-56794J0D01*
G75*
G01
X1269390Y4565904D02*
G03X1269390Y4565904I-56794J0D01*
G75*
G01
X1675790Y4972304D02*
G03X1675790Y4972304I-56794J0D01*
G75*
G01
X1669694Y4572000D02*
G03X1669694Y4572000I-56794J0D01*
G75*
G01
X3002966Y4775200D02*
G03X3002966Y4775200I-170866J0D01*
G75*
G01
X2685694Y4978400D02*
G03X2685694Y4978400I-56794J0D01*
G75*
G01
X2691790Y4565904D02*
G03X2691790Y4565904I-56794J0D01*
G75*
G01
X3098190Y4972304D02*
G03X3098190Y4972304I-56794J0D01*
G75*
G01
X3092094Y4572000D02*
G03X3092094Y4572000I-56794J0D01*
M02*
